<svg xmlns="http://www.w3.org/2000/svg" viewBox="0 0 24 24"><path fill="#b5e853" d="M6 1.61L0 12l6 10.39h12L24 12 18 1.61H6zm3.97 5.51l2.7 2.78 1.6 1.6h0l2.41 2.36a5 5 0 0 1-.56.34 3.76 3.76 0 0 1-.5.22 2.7 2.7 0 0 1-.43.11 2.08 2.08 0 0 1-.36.03c-.13 0-.24-.01-.34-.03a1.32 1.32 0 0 1-.24-.07.95.95 0 0 1-.2-.11l-1.06-1.09-3.04-3.04-1.1 1.05-3.07 3.07a.97.97 0 0 1-.2.11 1.27 1.27 0 0 1-.24.07 1.66 1.66 0 0 1-.34.03c-.11 0-.23-.01-.36-.03a2.7 2.7 0 0 1-.42-.11 3.75 3.75 0 0 1-.5-.22 5.23 5.23 0 0 1-.56-.34l6.8-6.73zm4.72.79l4.58 4.6 1.38 1.35a5.24 5.24 0 0 1-.56.34 3.73 3.73 0 0 1-.49.22 2.7 2.7 0 0 1-.43.11 2.08 2.08 0 0 1-.36.03c-.13 0-.24-.01-.34-.03a1.29 1.29 0 0 1-.39-.15.24.24 0 0 1-.05-.04l-1.23-1.22-2.11-2.11-.33.33-1.56-1.55 1.9-1.9zm-5.97 4.12v2.53a2.13 2.13 0 0 1-.36-.04 2.77 2.77 0 0 1-.42-.12 3.71 3.71 0 0 1-.49-.21 5.22 5.22 0 0 1-.55-.34l1.82-1.82z"/></svg>