<svg xmlns="http://www.w3.org/2000/svg" viewBox="0 0 24 24"><path fill="#b5e853" d="M4.99 0a.55.55 0 0 0-.53.55v4.91c0 .14.06.28.16.39a.53.53 0 0 0 .38.16h3.43l8.2 17.68a.54.54 0 0 0 .49.32h5.81a.55.55 0 0 0 .54-.55v-4.91a.54.54 0 0 0-.54-.55H20.9L12.74.32a.55.55 0 0 0-.49-.32H4.99zm.54 1.09h6.37l8.16 17.68a.54.54 0 0 0 .49.32h1.82v3.82h-4.92L9.24 5.23a.54.54 0 0 0-.49-.32H5.52zm2.01 8.24a.54.54 0 0 0-.49.31L.6 23.21a.55.55 0 0 0 .03.53.53.53 0 0 0 .45.25h6.17a.55.55 0 0 0 .5-.31l3.38-7.16a.54.54 0 0 0 0-.47L8.04 9.64a.55.55 0 0 0-.49-.31zm.01 1.8l2.49 5.15-3.12 6.62H1.95z"/></svg>