<svg xmlns="http://www.w3.org/2000/svg" viewBox="0 0 24 24"><path fill="#b5e853" d="M6.43 17.57h10.71V6.86H6.43v10.71zM18 6.86h1.71v.86H18v1.72h1.71v.86H18v1.29h1.71v.86H18v1.71h1.71V15H18v1.71h1.71v.86H18v.06a.8.8 0 0 1-.8.8h-.06v1.71h-.86v-1.71h-1.72v1.71h-.86v-1.71h-1.28v1.71h-.86v-1.71H9.86v1.71H9v-1.71H7.29v1.71h-.86v-1.71h-.06a.8.8 0 0 1-.8-.8v-.06H4.29v-.86h1.28V15H4.29v-.86h1.28v-1.71H4.29v-.86h1.28v-1.28H4.29v-.86h1.28V7.71H4.29v-.86h1.28V6.8a.8.8 0 0 1 .8-.8h.06V4.29h.86V6H9V4.29h.86V6h1.71V4.29h.86V6h1.29V4.29h.86V6h1.72V4.29h.86V6h.06a.8.8 0 0 1 .8.8v.06zm-5.57 16.23a.05.05 0 0 1-.05.05H.91a.05.05 0 0 1-.05-.05V11.63c0-.03.02-.05.05-.05h2.52v-.86H.91a.91.91 0 0 0-.91.91v11.47a.91.91 0 0 0 .91.91h11.47a.91.91 0 0 0 .91-.91V21h-.86zM24 .91v11.47a.91.91 0 0 1-.91.91h-2.52v-.86h2.52a.05.05 0 0 0 .05-.05V.91a.05.05 0 0 0-.05-.05H11.63a.05.05 0 0 0-.05.05v2.52h-.86V.91a.91.91 0 0 1 .91-.91h11.47a.91.91 0 0 1 .91.91z"/></svg>