<svg xmlns="http://www.w3.org/2000/svg" viewBox="0 0 24 24"><path fill="#b5e853" d="M6.76 10.04a2.4 2.4 0 0 0 .09.71 4.28 4.28 0 0 0 .26.58c.04.06.06.13.06.18 0 .08-.05.16-.15.24l-.5.34a.38.38 0 0 1-.21.07c-.08 0-.16-.04-.24-.11a2.47 2.47 0 0 1-.29-.37 6.18 6.18 0 0 1-.25-.47c-.62.73-1.41 1.1-2.35 1.1-.67 0-1.2-.19-1.6-.57s-.59-.89-.59-1.53c0-.68.24-1.23.73-1.64s1.13-.62 1.96-.62a6.3 6.3 0 0 1 .85.06c.29.04.6.1.92.18v-.58c0-.61-.13-1.03-.37-1.28-.25-.25-.69-.37-1.3-.37-.28 0-.57.03-.86.1s-.58.16-.86.27a2.29 2.29 0 0 1-.28.1.49.49 0 0 1-.13.02c-.11 0-.17-.08-.17-.25V5.8c0-.13.02-.22.06-.28a.6.6 0 0 1 .22-.17 4.58 4.58 0 0 1 1-.36 4.84 4.84 0 0 1 1.25-.15c.95 0 1.64.22 2.09.65.44.43.66 1.09.66 1.96v2.59zm-3.24 1.21c.26 0 .53-.05.82-.14a1.78 1.78 0 0 0 .76-.51 1.27 1.27 0 0 0 .27-.51 2.9 2.9 0 0 0 .08-.69v-.34a6.66 6.66 0 0 0-.74-.14 6.02 6.02 0 0 0-.75-.05c-.54 0-.93.1-1.19.32s-.39.52-.39.92c0 .38.1.65.29.85.19.2.47.3.84.3zm6.41.86c-.14 0-.24-.02-.3-.08-.06-.05-.12-.16-.17-.31L7.59 5.55a1.4 1.4 0 0 1-.07-.32c0-.13.06-.2.19-.2h.78c.15 0 .26.03.31.08.06.05.11.16.16.31l1.34 5.28 1.25-5.28c.04-.16.09-.26.15-.31a.55.55 0 0 1 .32-.08h.64c.15 0 .26.03.32.08.06.05.12.16.15.31l1.26 5.35 1.38-5.35c.05-.16.1-.26.16-.31a.52.52 0 0 1 .31-.08h.74c.13 0 .2.07.2.2 0 .04-.01.08-.02.13a1.14 1.14 0 0 1-.06.2l-1.92 6.17c-.05.16-.1.26-.17.31a.51.51 0 0 1-.3.08h-.69c-.15 0-.26-.02-.32-.08s-.12-.16-.15-.32l-1.24-5.15-1.23 5.14c-.04.16-.09.26-.15.32s-.18.08-.32.08zm10.26.21a5.32 5.32 0 0 1-1.23-.14c-.4-.1-.71-.2-.92-.32-.13-.07-.21-.15-.25-.22a.56.56 0 0 1-.05-.22v-.41c0-.17.06-.25.18-.25.05 0 .1.01.14.02s.12.05.2.08a4.31 4.31 0 0 0 .88.28 4.8 4.8 0 0 0 .95.1c.5 0 .89-.09 1.16-.26a.86.86 0 0 0 .41-.76.78.78 0 0 0-.21-.56c-.14-.15-.42-.29-.81-.41l-1.16-.36c-.58-.18-1.01-.45-1.28-.81a1.9 1.9 0 0 1-.4-1.16c0-.33.07-.63.22-.89s.34-.48.57-.65a2.5 2.5 0 0 1 .83-.41 3.5 3.5 0 0 1 1.01-.14 4.01 4.01 0 0 1 .54.03l.52.09.45.13c.14.05.26.1.34.14a.69.69 0 0 1 .24.2.43.43 0 0 1 .07.26v.38c0 .17-.06.26-.18.26a.83.83 0 0 1-.3-.1 3.65 3.65 0 0 0-1.53-.31c-.45 0-.82.07-1.06.22s-.37.38-.37.71a.75.75 0 0 0 .24.57c.16.15.45.3.88.44l1.13.36c.57.18.99.44 1.24.77a1.8 1.8 0 0 1 .37 1.12 2.06 2.06 0 0 1-.21.93 2.16 2.16 0 0 1-.58.7c-.25.2-.54.34-.89.45-.36.11-.73.17-1.14.17zm1.51 3.88c-2.63 1.94-6.44 2.97-9.72 2.97A17.6 17.6 0 0 1 .11 14.65c-.25-.22-.02-.53.27-.35 3.38 1.96 7.56 3.15 11.88 3.15a23.71 23.71 0 0 0 9.06-1.85c.44-.2.81.29.38.61zm1.09-1.25c-.34-.43-2.22-.21-3.07-.1-.25.03-.3-.19-.06-.36 1.5-1.05 3.97-.75 4.25-.4.29.36-.08 2.83-1.48 4.01-.21.18-.42.09-.33-.15.32-.79 1.03-2.57.7-2.99z"/></svg>