<svg xmlns="http://www.w3.org/2000/svg" viewBox="0 0 24 24"><path fill="#b5e853" d="M1.8 22.2H6V24H0v-6h1.8v4.2zM12.62 9.9l-7.63 7.64 1.48 1.48 7.63-7.64-1.48-1.48zm-8.26 5.28l-.39-.39a1.5 1.5 0 0 1-.19-1.89L8.39 6H1a1 1 0 0 0-1 1v5.5l3.5 3.6.86-.92zM24 1v8.93a2 2 0 0 1-.89 1.66l-12.28 8.2a1 1 0 0 1-1.26-.12l-1.53-1.52 6.77-6.77-2.19-2.19-6.77 6.77-1.53-1.53a1 1 0 0 1-.12-1.26L12.4.89A2 2 0 0 1 14.07 0H23a1 1 0 0 1 1 1zm-3 5a3 3 0 1 0-6 0 3 3 0 0 0 6 0zM10.27 20.46c-.4 0-.78-.16-1.06-.44l-.37-.37-.84.84 3.5 3.5H17a1 1 0 0 0 1-1v-7.39l-6.9 4.6a1.49 1.49 0 0 1-.83.25z"/></svg>