<svg xmlns="http://www.w3.org/2000/svg" viewBox="0 0 24 24"><path fill="#b5e853" d="M12.08.07L8.88 3.28H3.35v5.43L0 12.01l3.35 3.3v5.39h5.37l3.29 3.24 3.29-3.24h5.43v-5.37l3.28-3.3-3.23-3.25V3.32h-5.46zm0 .75l2.49 2.51h-1.69v6.44l-.8.8-.81-.81V3.28H9.63zm-8.2 2.99h4.48L6.49 5.69l4.25 4.28v.65h-.8l-4.27-4.2-1.8 1.77zm5.23 0h1.63v5.42L7.23 5.69zm4.3.04h1.69l1.83 1.84-3.52 3.54zm2.43 0h4.4v4.39L18.41 6.4l-4.24 4.27h-.76v-.69l4.26-4.29zm2.57 3.3l1.83 1.84v1.68h-5.33zm-12.73.01l3.52 3.46H3.88V8.93zM3.35 9.45v1.7h6.38l.87.86-.78.77H3.35v1.79l-2.6-2.55zm17.42.07l2.49 2.5-2.53 2.55v-1.8h-6.41l-.75-.75.82-.83h6.38zm-9.5.98l.81.81.19-.19.61-.62v.69h.77l-.82.83.75.75h-.72v.81l-.84-.83-.74.73v-.71h-.7l.78-.77-.19-.19-.68-.67h.79zm-7.39 2.81h5.4l-3.6 3.55-1.8-1.77zm6.15 0h.71v.7l-4.4 4.34 1.85 1.82H3.88v-4.34l1.8 1.77zm3.35 0h.71l4.32 4.34.19-.19 1.6-1.61v4.32h-4.37l1.85-1.82-.19-.18-4.12-4.05zm1.46 0h5.36v1.8l-1.78 1.8zm-2.83.19l.84.83v6.37h1.69l-2.53 2.5-2.53-2.5h1.79v-6.47zm-1.27 1.25v5.42h-1.8l-1.85-1.82zm2.64.1l3.55 3.5-1.85 1.82h-1.7z"/></svg>