<svg xmlns="http://www.w3.org/2000/svg" viewBox="0 0 24 24"><path fill="#b5e853" d="M13.98 11.08h2.12a.19.19 0 0 0 .19-.19V9.01a.19.19 0 0 0-.19-.19h-2.12a.19.19 0 0 0-.19.19v1.89c0 .1.08.19.19.19m-2.95-5.43h2.12a.19.19 0 0 0 .19-.19V3.57a.19.19 0 0 0-.19-.19h-2.12a.19.19 0 0 0-.19.19v1.89c0 .1.08.18.19.18m0 2.72h2.12a.19.19 0 0 0 .19-.19V6.29a.19.19 0 0 0-.19-.18h-2.12a.19.19 0 0 0-.19.18v1.89c0 .1.08.19.19.19m-2.93 0h2.12a.19.19 0 0 0 .18-.19V6.29a.19.19 0 0 0-.19-.18H8.1a.19.19 0 0 0-.18.18v1.89c0 .1.08.19.18.19m-2.96 0h2.12a.19.19 0 0 0 .18-.19V6.29a.19.19 0 0 0-.18-.18H5.14a.19.19 0 0 0-.19.18v1.89c0 .1.08.19.19.19m5.89 2.72h2.12a.19.19 0 0 0 .19-.19V9.01a.19.19 0 0 0-.19-.19h-2.12a.19.19 0 0 0-.19.19v1.89c0 .1.08.19.19.19m-2.93 0h2.12a.19.19 0 0 0 .18-.19V9.01a.19.19 0 0 0-.18-.19H8.1a.19.19 0 0 0-.18.19v1.89c0 .1.08.19.18.19m-2.96 0h2.12a.19.19 0 0 0 .18-.19V9.01a.19.19 0 0 0-.18-.19H5.14a.19.19 0 0 0-.19.19v1.89c0 .1.08.19.19.19m-2.92 0h2.12a.19.19 0 0 0 .18-.19V9.01a.19.19 0 0 0-.18-.19H2.22a.19.19 0 0 0-.18.19v1.89c0 .1.08.19.19.19m21.55-1.19c-.07-.05-.67-.51-1.95-.51a6.1 6.1 0 0 0-1.01.09c-.25-1.7-1.65-2.53-1.72-2.57l-.34-.2-.23.33a4.6 4.6 0 0 0-.61 1.43c-.23.97-.09 1.88.4 2.66a4.7 4.7 0 0 1-1.74.42H.75a.75.75 0 0 0-.75.75 11.38 11.38 0 0 0 .69 4.06c.55 1.43 1.36 2.48 2.41 3.12 1.18.72 3.1 1.14 5.28 1.14a15.74 15.74 0 0 0 2.93-.27 12.25 12.25 0 0 0 3.82-1.39 10.51 10.51 0 0 0 2.61-2.14c1.25-1.42 2-3 2.55-4.4h.22c1.37 0 2.22-.55 2.68-1.01.31-.29.55-.65.71-1.05l.1-.29z"/></svg>