<svg xmlns="http://www.w3.org/2000/svg" viewBox="0 0 24 24"><path fill="#b5e853" d="M12 0A12 12 0 0 0 0 11.99h0v9.29h0A2.73 2.73 0 0 0 2.73 24h9.28A12 12 0 0 0 24 12 12 12 0 0 0 12 0zm2.43 4.94c2.02 0 3.92 1.54 3.92 3.67 0 .2 0 .39-.03.62a1 1 0 0 1-1.14.89 1 1 0 0 1-.84-1.18 2.61 2.61 0 0 0 .01-.34c0-1.21-.99-1.67-1.92-1.67s-1.78.78-1.78 1.67v3.07l1.73-.01c1.35-.03 1.37 2.01.02 2l-1.75.01v1.09s.02 1.01-.02 1.78c-.21 2.25-2.12 4.05-4.42 4.05a4.46 4.46 0 0 1-4.45-4.44c.07-2.52 2.08-4.49 4.6-4.47l1.41-.01v2l-1.41.01h-.01c-1.39.04-2.58.98-2.6 2.47a2.44 2.44 0 0 0 2.45 2.44c1.36 0 2.44-.99 2.44-2.44V8.6a3.9 3.9 0 0 1 .02-.41 3.8 3.8 0 0 1 3.75-3.26z"/></svg>