<svg xmlns="http://www.w3.org/2000/svg" viewBox="0 0 24 24"><path fill="#b5e853" d="M10.98 13.84a.5.5 0 0 1-.35-.15l-.74-.74a.5.5 0 1 1 .71-.71l.39.39 1.18-1.18a.5.5 0 0 1 .71.71l-1.53 1.53a.5.5 0 0 1-.35.15zm9.35-.15l1.53-1.53a.5.5 0 0 0-.71-.71l-1.18 1.18-.39-.39a.5.5 0 1 0-.71.71l.75.74a.5.5 0 0 0 .71 0zM4.53 7.45l2.56-1.58a1 1 0 0 0 .01-1.7L4.53 2.56A1 1 0 0 0 3 3.41v3.2a1 1 0 0 0 1.53.85zm2.03-2.44L4 6.6v-3.2l2.56 1.61zM24 12.5a3.5 3.5 0 0 1-3.5 3.5 3.5 3.5 0 0 1-3.46-3h-2.08a3.5 3.5 0 0 1-3.46 3 3.5 3.5 0 0 1-3.46-3h-.56A3.47 3.47 0 0 1 5 11.96V17a3 3 0 0 0 3 3h.04a3.5 3.5 0 0 1 6.96.5 3.5 3.5 0 0 1-3.5 3.5 3.5 3.5 0 0 1-3.46-3H8a4 4 0 0 1-4-4V9.9A5.01 5.01 0 0 1 0 5a5 5 0 0 1 5-5 5 5 0 0 1 5 5 5.01 5.01 0 0 1-4.95 5 2.48 2.48 0 0 0 2.43 2h.56a3.5 3.5 0 0 1 3.46-3 3.5 3.5 0 0 1 3.46 3h2.08a3.5 3.5 0 0 1 3.46-3 3.5 3.5 0 0 1 3.5 3.5zm-15 8a2.5 2.5 0 1 0 5 0 2.5 2.5 0 1 0-5 0zM5 9a4 4 0 0 0 4-4 4 4 0 0 0-4-4 4 4 0 0 0-4 4 4 4 0 0 0 4 4zm9 3.5a2.5 2.5 0 1 0-5 0 2.5 2.5 0 1 0 5 0zm9 0a2.5 2.5 0 1 0-5 0 2.5 2.5 0 1 0 5 0zm-13 8a.5.5 0 1 0 1 0 .5.5 0 0 0-1 0zm2 0a.5.5 0 1 0 1 0 .5.5 0 0 0-1 0zm12 0a3.5 3.5 0 0 1-3.5 3.5 3.5 3.5 0 0 1-3.46-3c-.01 0-.01 0-.02 0l-.51.02h-.02a.5.5 0 0 1-.02-1l.51-.02c.02 0 .04.01.05.01A3.5 3.5 0 0 1 20.5 17a3.5 3.5 0 0 1 3.5 3.5zm-1 0a2.5 2.5 0 1 0-5 0 2.5 2.5 0 1 0 5 0z"/></svg>