<svg xmlns="http://www.w3.org/2000/svg" viewBox="0 0 24 24"><path fill="#fff" d="M12 .3a12 12 0 0 0-3.79 23.39c.6.11.82-.26.82-.58l-.02-2.04c-3.34.72-4.04-1.61-4.04-1.61-.55-1.39-1.33-1.76-1.33-1.76-1.09-.74.08-.73.08-.73 1.21.08 1.84 1.24 1.84 1.24 1.07 1.84 2.81 1.3 3.5 1 .11-.78.42-1.3.76-1.61-2.66-.3-5.47-1.33-5.47-5.93 0-1.31.46-2.38 1.24-3.22-.13-.3-.54-1.52.11-3.18 0 0 1-.32 3.3 1.23a11.5 11.5 0 0 1 3-.41 11.5 11.5 0 0 1 3 .41c2.28-1.55 3.29-1.23 3.29-1.23.64 1.65.24 2.87.12 3.18.77.84 1.23 1.91 1.23 3.22 0 4.61-2.8 5.63-5.47 5.92.42.36.81 1.1.81 2.22l-.02 3.29c0 .32.21.69.82.57C20.57 22.09 24 17.59 24 12.3a12 12 0 0 0-12-12"/></svg>