<svg xmlns="http://www.w3.org/2000/svg" viewBox="0 0 24 24"><path fill="#b5e853" d="M12.5 0l-.48.02C7.8.35 8.92 4.83 8.85 6.32A5.39 5.39 0 0 1 7.8 9.34a14.9 14.9 0 0 0-2.72 4.52c-.28.83-.41 1.68-.29 2.49a.42.42 0 0 0-.11.14c-.26.27-.45.6-.66.84-.2.2-.48.27-.8.4s-.66.27-.86.68a1.34 1.34 0 0 0-.13.6 2.81 2.81 0 0 0 .06.54c.06.4.12.73.04.97-.25.68-.28 1.14-.11 1.48s.54.47.94.6c.81.2 1.91.14 2.77.6.93.47 1.87.67 2.62.47a1.77 1.77 0 0 0 1.21-.95c.59 0 1.23-.27 2.26-.33.7-.06 1.57.27 2.58.2.03.13.06.2.11.33h0c.39.78 1.11 1.13 1.88 1.07s1.59-.54 2.26-1.31c.63-.77 1.68-1.08 2.38-1.5.35-.2.63-.47.65-.85.02-.4-.2-.81-.71-1.38v-.1h0c-.17-.2-.25-.54-.34-.93-.09-.4-.18-.79-.49-1.05h0c-.06-.05-.12-.07-.19-.14a.36.36 0 0 0-.19-.06c.43-1.28.26-2.55-.17-3.69-.53-1.41-1.46-2.64-2.18-3.48-.8-1-1.58-1.96-1.56-3.37.03-2.15.24-6.13-3.54-6.14zm.53 3.41h.01a.95.95 0 0 1 .58.2c.19.13.33.33.44.53.11.26.16.46.17.72 0-.02.01-.04.01-.06v.11a.09.09 0 0 1 0-.02v-.02a1.81 1.81 0 0 1-.15.71.95.95 0 0 1-.21.34.71.71 0 0 0-.09-.04c-.1-.04-.2-.06-.28-.13a1.31 1.31 0 0 0-.22-.07c.05-.06.15-.13.18-.2.05-.13.08-.26.09-.4v-.02a1.21 1.21 0 0 0-.06-.4c-.04-.13-.1-.2-.18-.33-.08-.07-.17-.13-.27-.13h-.02c-.09 0-.18.03-.26.13a.8.8 0 0 0-.21.33 1.18 1.18 0 0 0-.09.4v.02a2.38 2.38 0 0 0 .02.27l-.61-.2a1.64 1.64 0 0 1-.02-.2v-.02a1.77 1.77 0 0 1 .15-.77 1.08 1.08 0 0 1 .43-.53.99.99 0 0 1 .59-.2zm-2.96.06h.04a.7.7 0 0 1 .4.14 1.38 1.38 0 0 1 .34.46 1.74 1.74 0 0 1 .15.67h0c.01.13.01.2 0 .27v.08c-.03.01-.06.02-.08.02-.15.05-.27.13-.39.2.01-.09.01-.18 0-.27v-.01c-.01-.13-.04-.2-.08-.33a.61.61 0 0 0-.17-.27.25.25 0 0 0-.18-.06h-.02c-.07.01-.13.04-.19.13a.55.55 0 0 0-.12.27.94.94 0 0 0-.02.33v.01c.01.13.04.2.08.33s.1.2.17.27c.01.01.02.02.03.02-.07.06-.12.07-.18.14a.3.3 0 0 1-.13.07 2.62 2.62 0 0 1-.28-.4 1.77 1.77 0 0 1-.15-.67 1.76 1.76 0 0 1 .08-.67 1.43 1.43 0 0 1 .28-.54c.13-.13.26-.2.42-.2zm1.37 1.71c.33 0 .73.07 1.22.4.29.2.52.27 1.05.47h0c.26.14.4.27.48.4v-.13a.57.57 0 0 1 .02.47c-.12.31-.52.64-1.06.84h0c-.27.13-.5.33-.78.47s-.59.29-1.01.27a1.14 1.14 0 0 1-.45-.07 3.57 3.57 0 0 1-.32-.2c-.2-.13-.36-.33-.61-.46h0-.01c-.4-.25-.62-.51-.69-.71-.07-.27-.01-.47.19-.6.22-.13.38-.27.48-.34l.18-.13h0 0c.17-.2.44-.47.84-.6a1.84 1.84 0 0 1 .47-.07zm2.8 2.14a23.96 23.96 0 0 0 1.73 4.47c.29.53.86 1.66 1.1 3.02a1.89 1.89 0 0 1 .51.06c.65-1.67-.55-3.47-1.09-3.97-.22-.2-.23-.34-.12-.34a5.8 5.8 0 0 1 1.65 2.76 3.5 3.5 0 0 1 .02 1.67c.07.03.14.06.2.07 1.03.53 1.41.94 1.23 1.54v-.04c-.06 0-.12 0-.18 0h-.02c.15-.47-.18-.82-1.07-1.22-.91-.4-1.65-.34-1.77.46-.01.04-.01.07-.02.13-.07.02-.14.05-.21.06-.43.27-.66.67-.79 1.19a10.3 10.3 0 0 0-.21 1.87h0c-.02.33-.17.84-.32 1.35-1.5 1.07-3.58 1.54-5.35.33a2.65 2.65 0 0 0-.4-.53 1.45 1.45 0 0 0-.28-.33c.18 0 .34-.03.46-.07a.62.62 0 0 0 .31-.33c.11-.27 0-.7-.35-1.16s-.93-1-1.79-1.52c-.63-.4-.99-.87-1.15-1.4-.17-.53-.14-1.09-.01-1.64.25-1.07.87-2.11 1.27-2.76.11-.06.04.13-.41.97-.4.75-1.14 2.5-.12 3.85a8.12 8.12 0 0 1 .65-2.88c.56-1.28 1.74-3.5 1.84-5.27l.29.2c.22.13.38.33.59.47.21.2.48.34.88.34l.11.01c.41 0 .73-.13 1-.27.29-.13.52-.33.74-.4h.01c.47-.13.84-.4 1.04-.7zm2.18 8.96c.04.6.34 1.25.88 1.38.59.13 1.43-.33 1.79-.77l.21-.01c.32-.01.58.01.85.27h0c.21.2.3.53.39.88.09.4.15.78.41 1.07.49.53.64.91.64 1.14h0v.02-.01c-.02.26-.18.4-.5.59-.63.4-1.75.71-2.46 1.57a3.1 3.1 0 0 1-2.04 1.19c-.67.05-1.24-.2-1.57-.9h-.01c-.21-.4-.12-1.02.06-1.69s.43-1.34.46-1.9c.04-.71.08-1.34.2-1.81.12-.46.31-.8.64-.98l.05-.02zm-10.81.05h.01c.05 0 .11 0 .16.01.38.05.71.33 1.02.75l.91 1.66h0c.24.53.75 1.06 1.19 1.64.43.6.77 1.13.73 1.57v.01c-.06.74-.48 1.15-1.12 1.29a3.7 3.7 0 0 1-2.39-.46c-.97-.54-2.12-.47-2.86-.6-.37-.07-.61-.2-.72-.4s-.11-.6.12-1.23h0 0c.12-.33.03-.75-.03-1.12-.06-.4-.08-.71.04-.94.16-.33.4-.4.69-.53s.64-.2.92-.47h0 0c.26-.27.45-.6.67-.84.19-.2.38-.34.66-.34zm7.16-9.07c-.44.2-.95.54-1.49.54s-.97-.27-1.28-.47l-.37-.33c-.16-.13-.14-.33-.07-.33.11.02.13.13.2.2.1.07.21.2.36.33.29.2.68.47 1.17.47s1.05-.27 1.4-.47l.65-.47c.16-.14.15-.27.28-.27.13.02.03.13-.15.33a8.1 8.1 0 0 1-.69.47zm-1.08-1.58v-.02c-.01-.02.01-.04.03-.05.07-.04.18-.03.26 0 .06 0 .16.07.15.13-.01.05-.09.07-.13.07-.05 0-.09-.04-.14-.07-.05-.02-.15-.01-.16-.07zm-.55 0c-.02.06-.11.05-.17.07-.05.03-.09.07-.14.07s-.13-.02-.14-.07c-.01-.07.09-.13.15-.13.08-.03.18-.05.26 0 .02.01.04.03.03.05v.02h0z"/></svg>