<svg xmlns="http://www.w3.org/2000/svg" width="186.8" height="186.8"><g fill="white"><path d="M93.6 144.2L74.8 163l-4.3 4c.3 1.3.6 2.6 1 3.8a30 30 0 0 0 1.4 3.6l2 3.4c.7 1 1.5 2 2.5 3s2 1.7 3 2.5 2.3 1.4 3.7 2a23 23 0 0 0 4.4 1.2 30 30 0 0 0 5.2.4c2 0 3.6-.1 5.2-.4a23 23 0 0 0 4.4-1.2c1.3-.5 2.6-1.2 3.7-2s2-1.6 3-2.5a21 21 0 0 0 2.5-3c.7-1 1.4-2.2 2-3.4s1-2.4 1.4-3.7l1-3.8-4-3.5z"/><path d="M93.6 144.2l19.2 19.2c1.3 1.3 2.6 2.4 4 3.5l-1 3.8-1.4 3.7c-.6 1.2-1.2 2.3-2 3.4a21 21 0 0 1-2.5 3l-3 2.5c-1 .7-2.4 1.4-3.7 2a23 23 0 0 1-4.4 1.2c-1.6.3-3.3.4-5.2.4a30 30 0 0 1-5.2-.4 23 23 0 0 1-4.4-1.2c-1.3-.5-2.6-1.2-3.7-2a36 36 0 0 1-3-2.5c-1-1-1.7-2-2.5-3a19 19 0 0 1-2-3.4 30 30 0 0 1-1.4-3.6 42 42 0 0 1-1-3.8l4.3-4zM162 129l-53.6.3-6.5 6.5L121 155c1.2 1.2 2.4 2.4 3.8 3.5l4.2 3.2a21 21 0 0 0 4.6 2.6c1.6.6 3.2 1.4 5 1.8a23 23 0 0 0 5 .7c1.6 0 3.5-.2 5.3-.7l2.7-1c1-.4 1.8-.8 2.7-1.4a26 26 0 0 0 2.7-1.9l2.7-2.4a30 30 0 0 0 3.4-4 23 23 0 0 0 2.3-4c.6-1.3 1-2.7 1.3-4s.4-2.6.4-4a21 21 0 0 0-.4-3.8l-1-3.7c-.4-1.2-1-2.4-1.6-3.6s-1.3-2.3-2-3.4z"/><path d="M162 129l2 3.4c.6 1.2 1 2.4 1.6 3.6s.8 2.5 1 3.7.4 2.5.4 3.8-.1 2.6-.4 4-.7 2.6-1.3 4a23 23 0 0 1-2.3 4 30 30 0 0 1-3.4 4L157 162l-2.7 2c-1 .5-1.8 1-2.7 1.4a20 20 0 0 1-2.7.9c-1.8.5-3.5.7-5.3.7s-3.5-.3-5-.7-3.3-1-5-1.8-3-1.6-4.6-2.6-3-2-4.2-3.2L121 155 101.7 136l6.5-6.5 53.6-.3zm5.4-59c-1.2 1.3-47 47.3-47 47.3h35.8l5-.2 5.2-.6 5-1.3c1.7-.6 3.2-1.2 4.7-2s3-2 4-3l1.7-2 1.5-2.3 1.2-2.6a23 23 0 0 0 .9-3l.6-3.3.2-3.7-.4-5.3-1.2-4.5c-.5-1.5-1-2.6-2-3.7s-1.5-2-2.4-3-2-1.7-3-2.4a23 23 0 0 0-3.3-1.9c-1-.5-2.3-1-3.6-1.4s-2.5-.7-3.7-1z"/><path d="M167.4 70l3.7 1c1.2.4 2.4.8 3.6 1.4a23 23 0 0 1 3.3 1.9c1 .7 2 1.5 3 2.4s1.7 2 2.4 3 1.3 2.4 2 3.7 1 3 1.2 4.5a41 41 0 0 1 .4 5.3l-.2 3.7-.6 3.3a23 23 0 0 1-.9 3 20 20 0 0 1-1.2 2.6l-1.5 2.3c-.5.7-1 1.4-1.7 2a19 19 0 0 1-4 3c-1.4.8-3 1.5-4.7 2l-5 1.3-5.2.6-5 .2h-35.8l47-47.3zm-137-1l-5 .2-5.2.7-5 1.4c-1.7.6-3.2 1.3-4.7 2.2a22 22 0 0 0-4 3c-1 1-2.7 3-3.5 4.5a20 20 0 0 0-1.2 2.6l-1 3a26 26 0 0 0-.6 3.2 37 37 0 0 0-.2 3.6c0 2 .1 3.6.4 5.2a23 23 0 0 0 1.2 4.4c.5 1.3 1.2 2.6 2 3.7l2.5 3c1 1 2 1.7 3 2.5a19 19 0 0 0 3.4 2l3.7 1.4 3.8 1C21 115 66.8 69 66.8 69zM44 19.7l-2.6.2c-1 .2-1.8.3-2.7.6l-2.7 1-2.7 1.5c-1 .6-1.8 1.2-2.8 2s-1.8 1.6-2.8 2.5a40 40 0 0 0-3.5 4c-1 1.3-1.7 2.7-2.3 4s-1 2.6-1.3 4-.4 2.6-.4 4 .1 2.5.3 3.8a23 23 0 0 0 1 3.6c.4 1.2 1 2.3 1.6 3.5s1.3 2.2 2 3.3a7863 7863 0 0 1 53.6-.3l6.5-6.5L66.4 32l-3.8-3.5C61.3 27 60 26 58.4 25L54 22.3l-4.8-2c-1.6-.6-3.3-.7-5-.7z"/><path d="M144 19.7c-1.7 0-3.5.3-5 .7s-3.3 1-5 1.8-3 1.6-4.6 2.6-3 2-4.2 3.2l-3.8 3.5L76.7 76l-44.5 44.5c-1.2 1.2-2.4 2.4-3.5 3.8s-2.2 2.7-3.3 4.2-2 3-2.7 4.5l-2 4.8c-.6 1.6-.7 3.3-.7 5a11 11 0 0 0 .2 2.6l.6 2.7a20 20 0 0 0 1 2.7 23 23 0 0 0 1.5 2.7l2 2.8c.7 1 1.6 1.8 2.5 2.8s2 1.8 2.8 2.5a20 20 0 0 0 2.8 2 23 23 0 0 0 2.7 1.5 20 20 0 0 0 2.7 1c1 .3 1.8.4 2.7.6l2.6.2c1.7 0 3.4-.3 5-.7s3.3-1 4.8-2l4.5-2.7c1.4-1 2.8-2 4.2-3.3l3.8-3.5L111 110l44.5-44.5 3.5-3.8 3.2-4.2c1-1.5 2-3 2.6-4.6l1.8-5 .7-5c0-1.6-.2-3.5-.7-5.3a20 20 0 0 0-.9-2.7l-1.4-2.7a26 26 0 0 0-1.9-2.7c-.7-1-1.5-1.8-2.4-2.7l-2.7-2.4-2.7-2c-1-.5-1.8-1-2.7-1.4a20 20 0 0 0-2.7-.9c-1.8-.5-3.5-.7-5.3-.7zM93.6 0l-5.3.4a33 33 0 0 0-4.5 1.2c-1.5.5-2.6 1-3.7 2S78 5 77 6s-1.7 2-2.4 3a23 23 0 0 0-1.9 3.3c-.5 1-1 2.3-1.4 3.6a53 53 0 0 0-1 3.8l4.3 4 19 19L112.8 23a70 70 0 0 1 4-3.7l-1-3.7-1.4-3.6c-.5-1-1-2.2-2-3.3s-1.5-2-2.4-3-2-1.7-3-2.4-2.4-1.3-3.7-1.8-3-1-4.5-1.2a41 41 0 0 0-5.3-.4z"/></g></svg>
