<svg xmlns="http://www.w3.org/2000/svg" viewBox="0 0 24 24"><path fill="#b5e853" d="M22.38 23.34a1.62 1.62 0 0 0 1.54-2.14h0L17.35 1.76a1.62 1.62 0 0 0-1.53-1.1H8.18a1.62 1.62 0 0 0-1.53 1.1L.09 21.2a1.62 1.62 0 0 0 1.54 2.14h4.74a1.62 1.62 0 0 0 1.54-1.1l.98-2.89 4.95 3.68c.28.21.62.32.97.32M11.7 10.81l3.62 10.74a.54.54 0 0 1-.51.71h0-.03a.54.54 0 0 1-.32-.11l-9.29-6.9h4.85m6.31 7.01a1.6 1.6 0 0 0 .01-1.06L9.79 1.76a1.72 1.72 0 0 0-.01-.02h6.03a.54.54 0 0 1 .51.37l6.56 19.45a.54.54 0 0 1-.34.68"/></svg>