<svg xmlns="http://www.w3.org/2000/svg" viewBox="0 0 24 24"><path fill="#b5e853" d="M23.56 14.72a.53.53 0 0 0-.06-.12c-.14-.26-.48-.34-1.01-.23-1.65.34-2.29.13-2.53-.02a23.8 23.8 0 0 0 3.04-6.83c.27-1.05.8-3.52.12-4.73a1.56 1.56 0 0 0-.15-.24C21.69.91 19.8.03 17.51 0c-1.5-.02-2.77.35-3.12.48a9.45 9.45 0 0 0-.52-.08 8.04 8.04 0 0 0-1.31-.13c-1.18-.02-2.2.26-3.05.84-.86-.32-4.79-1.64-7.22.08C.94 2.15.31 3.87.43 6.3a32.1 32.1 0 0 0 1.24 5.74c.46 1.51.94 2.7 1.43 3.58.55.99 1.13 1.59 1.71 1.79.45.15 1.13.14 1.86-.73a55.98 55.98 0 0 1 1.95-2.21 3.1 3.1 0 0 0 1.39.38.06.06 0 0 0 0 0 11.03 11.03 0 0 0-.25.3c-.34.43-.41.52-1.5.74-.31.06-1.13.23-1.15.81a.59.59 0 0 0 .09.33c.23.42.92.61 1.02.63 1.34.33 2.5.09 3.37-.68-.02 2.23.08 4.42.35 5.09.22.55.76 1.9 2.47 1.9.25 0 .53-.03.83-.09A3.1 3.1 0 0 0 18.1 21l.54-4.1c.02-.07.04-.12.06-.14 0 0 .07-.05.43.03a.37.37 0 0 0 .04.01l.25.02h.02c.85.04 1.91-.14 2.53-.43.64-.3 1.81-1.03 1.59-1.67zM2.37 11.88a31.7 31.7 0 0 1-1.21-5.57c-.11-2.17.42-3.68 1.56-4.49 1.84-1.3 4.84-.54 6.11-.13l-.01.01C6.8 3.73 6.84 7.23 6.85 7.44l.02.36c.03.59.1 1.68-.07 2.92a3.7 3.7 0 0 0 .97 3.09 3.3 3.3 0 0 0 .25.24l-1.9 2.16c-.57.68-.96.55-1.09.51-.39-.13-.81-.59-1.24-1.32a17.8 17.8 0 0 1-1.41-3.51zm6.01 5.09a1.63 1.63 0 0 1-.43-.18c.09-.04.24-.09.48-.14 1.28-.27 1.48-.45 1.92-1l.37-.44a.36.36 0 0 0 .07-.13c.17-.15.27-.11.44-.04.16.06.31.26.37.47.03.1.06.29-.04.45-.9 1.27-2.22 1.25-3.17 1.01zm2.09-3.99l-.05.14-.33 1c-.67 0-1.32-.29-1.81-.8-.63-.65-.91-1.57-.78-2.5.18-1.31.12-2.45.08-3.06l-.01-.22c.3-.26 1.67-1 2.64-.77.45.1.72.41.83.93.58 2.7.08 3.83-.33 4.74a8.78 8.78 0 0 0-.23.55zm7.36 4.57l-.06.6-.15.44a.36.36 0 0 0-.02.11 2.8 2.8 0 0 1-.11.87 4.8 4.8 0 0 0-.18 1.06c-.11 1.41-.88 2.23-2.42 2.56-1.52.32-1.78-.5-2.02-1.22a6.58 6.58 0 0 0-.08-.23c-.21-.59-.19-1.41-.16-2.55.02-.56-.03-1.9-.33-2.65l.02-.89a.35.35 0 0 0-.02-.11 1.49 1.49 0 0 0-.04-.21c-.12-.43-.42-.79-.78-.94a1.1 1.1 0 0 0-.72-.09c.07-.28.18-.59.31-.93l.05-.14.21-.5c.43-.95 1.01-2.25.38-5.18-.24-1.1-1.03-1.63-2.23-1.51a5.2 5.2 0 0 0-1.71.53 5.67 5.67 0 0 0-.2.1c.09-1.11.44-3.17 1.74-4.48a4.03 4.03 0 0 1 .3-.28.35.35 0 0 0 .14-.06 4.4 4.4 0 0 1 2.8-.83 10.86 10.86 0 0 1 1.17.08 6.9 6.9 0 0 1 4.04 2.38c.81.96 1.25 1.93 1.43 2.45-1.32-.13-2.22.13-2.68.78-.99 1.42.54 4.17 1.28 5.5l.29.54c.24.58.55.97.78 1.26l.19.24c-.4.12-1.12.38-1.05 1.72l-.08.82c-.05.21-.07.46-.1.77zm.89-1.62c-.04-.83.27-.92.6-1.01a2.86 2.86 0 0 0 .14-.04 1.2 1.2 0 0 0 .13.1c.57.38 1.58.42 3.01.13a4.03 4.03 0 0 1-.95.6 5.2 5.2 0 0 1-1.75.36c-.72.03-1.09-.08-1.17-.15zm.57-9.27c-.01.35-.05.67-.11 1l-.13 1.18a8.9 8.9 0 0 0 .09 1.33c.11.89.22 1.8-.21 2.7a3.53 3.53 0 0 1-.19-.38 7.57 7.57 0 0 0-.32-.62c-.62-1.1-2.06-3.69-1.32-4.74.38-.54 1.34-.57 2.18-.46zm.23 7.01a12.38 12.38 0 0 0-.09-.11l-.04-.04c.73-1.2.58-2.39.46-3.44l-.09-1.22a8.7 8.7 0 0 1 .12-1.09A6.8 6.8 0 0 0 20 6.41a.56.56 0 0 0 .01-.19c-.05-.49-.6-1.94-1.73-3.25A7.8 7.8 0 0 0 15.59.93a9.25 9.25 0 0 1 2.03-.19c2.05.05 3.68.81 4.82 2.28a.91.91 0 0 1 .07.1c.72 1.36-.28 6.28-2.99 10.54zm-8.82-6.12c-.03.18-.31.42-.62.42a.58.58 0 0 1-.08-.01.8.8 0 0 1-.51-.32c-.05-.06-.12-.18-.11-.29a.22.22 0 0 1 .09-.15c.12-.09.35-.12.61-.09.32.04.64.19.61.42zm7.93-.41c.01.08-.05.2-.15.31a.72.72 0 0 1-.41.22.55.55 0 0 1-.07 0c-.29 0-.54-.23-.56-.37-.02-.18.26-.31.56-.35s.61.01.64.18z"/></svg>