<svg xmlns="http://www.w3.org/2000/svg" viewBox="0 0 24 24"><path fill="#b5e853" d="M21.69 3.16H3.33L0 6.49v14.35h20.67L24 17.51V3.16zM12.79 18.4l-1.56.73-1.35-2.22c-.2.06-.5.09-.92.09-1.58 0-2.68-.43-3.3-1.28s-.93-2.2-.93-4.03c0-1.84.32-3.21.95-4.1s1.73-1.34 3.29-1.34 2.66.44 3.28 1.33c.63.88.94 2.25.94 4.1 0 1.22-.13 2.2-.38 2.95-.26.75-.68 1.32-1.27 1.72zm4.74-1.59c-.86 0-1.45-.2-1.77-.59s-.48-1.14-.48-2.23v-3.53h-1.16V9.05h1.16V6.84h1.64v2.21h2.09v1.41h-2.09v3.35c0 .62.05 1.03.14 1.23.09.2.33.3.7.3l1.24-.05.07 1.33a8.8 8.8 0 0 1-1.55.2zM8.94 7.73c-.95 0-1.6.31-1.96.94-.35.63-.53 1.63-.53 3.01 0 1.37.17 2.36.51 2.95s1.01.89 1.98.89 1.63-.29 1.97-.88c.34-.58.51-1.57.51-2.95 0-1.39-.17-2.4-.52-3.03s-1.01-.94-1.95-.94z"/></svg>