<svg xmlns="http://www.w3.org/2000/svg" viewBox="0 0 24 24"><path fill="#b5e853" d="M15.7 13.5c-.78-1.07-1.98-1.52-3.69-1.88l-1.59-.37-1.2-.52c-.63-.45-1.17-1.63-1.02-2.68a3 3 0 0 1 3.39-2.53 2.96 2.96 0 0 1 1.96 1.16l1.81 2.38c1.03 1.33 2.19 1.73 3.46 1.1l.64-.27a.22.22 0 0 1 .28.09l.13.19a.31.31 0 0 0 .16.13.33.33 0 0 0 .33-.06l1.47-1.38c.26-.22.18-.42.18-.42l-.35-.81s-.1-.19-.43-.15l-1.97.18a.33.33 0 0 0-.27.41l.07.23c.01.05.01.1 0 .15a.22.22 0 0 1-.12.13l-.56.23c-.58.34-1.24.12-1.69-.42l-.5-.67-1.44-1.91a4.42 4.42 0 0 0-2.93-1.72c-2.44-.34-4.7 1.34-5.05 3.76a4.5 4.5 0 0 0 .86 3.3c.48.67 1.37 1.06 1.85 1.18l1.26.36 1.21.28.91.26c.26.09.85.31 1.32.7.57.58.88 1.41.75 2.28a2.74 2.74 0 0 1-4.9 1.25l-1.73-2.29a2.29 2.29 0 0 0-1.51-.89 2.31 2.31 0 0 0-1.71.44l-3.63 2.71A11 11 0 0 1 0 12C0 5.8 5.13.77 11.47.77c4.72 0 8.76 2.79 10.52 6.77l.58-.27.39-1.07.41.14-.35.96.98.34-.15.4-1.09-.38-.6.28a11.01 11.01 0 0 1 .78 4.07c0 6.2-5.14 11.23-11.47 11.23a11.53 11.53 0 0 1-9.26-4.61l3.72-2.79a.86.86 0 0 1 1.16.19l1.83 2.45a4.19 4.19 0 0 0 2.67 1.5 4.23 4.23 0 0 0 4.77-3.56 4.14 4.14 0 0 0-.66-2.92"/></svg>