<svg xmlns="http://www.w3.org/2000/svg" viewBox="0 0 24 24"><path fill="#b5e853" d="M17.61.46a3.41 3.41 0 1 0 0 6.82 3.41 3.41 0 1 0 0-6.82zM12.92.8a11.2 11.2 0 0 0-9.77 5.65 4.5 4.5 0 0 1 .26-.01 4.92 4.92 0 0 1 2.59.74 8.32 8.32 0 0 1 6.7-3.58A4.94 4.94 0 0 1 13.72.83a11.01 11.01 0 0 0-.8-.03zm9.23 4.99a4.92 4.92 0 0 1-1.92 2.25 8.36 8.36 0 0 1-.27 8.3 4.89 4.89 0 0 1 1.63 2.54 11.16 11.16 0 0 0 .56-13.09zM3.41 7.93A3.41 3.41 0 0 0 0 11.34a3.41 3.41 0 1 0 3.41-3.41zm2.03 7.87a4.91 4.91 0 0 1-2.91.36 11.1 11.1 0 0 0 7.99 6.7 11.23 11.23 0 0 0 2.42.25 4.88 4.88 0 0 1-1-2.85 8.48 8.48 0 0 1-.84-.14 8.3 8.3 0 0 1-5.66-4.32zm11.4.93a3.41 3.41 0 1 0 0 6.82 3.41 3.41 0 1 0 0-6.82z"/></svg>