<svg xmlns="http://www.w3.org/2000/svg" display="block" preserveAspectRatio="none" viewBox="0 0 2048 2048"><path  d="M405.9 79.98c.86 1.76.53 54.16 1 61.81a402.52 402.52 0 0 0 19.03 98.36c23.02 70.68 71.63 137.36 131.5 182.04 15.22 11.35 35.53 21.14 52.55 29.81-10.16-11.71-19.56-27.84-26.11-42-34.87-75.4-73.5-203.61 22.14-249.75-36.26 69.5-34.4 136.28-4.42 208.1 5.64 13.52 13.69 26.43 18.92 39.76l.45 1.15c21.45 16.23 39.53 36.93 59.4 55.57 62.38 58.49 124.58 134.96 199.71 177.07 56.72 31.8 112.58 57.98 163.52 99.54 18.19 14.84 35.53 29.62 53.18 44.6 87.78-55.3 174.88-133.48 287.19-101.27 31.07 8.92 59.35 24.92 89.32 36.38 9.68 2.21 20.92 3.04 30.59 4.95 44.11 8.72 95.6 17.83 114.46 64.26-32.84-5.74-74.79 6.64-107.12 13.67-27.84 6.06-32.9 9.88-53.81 27.96-48.24 41.7-86.88 106.12-106.99 166.17 51.08 72.6 72.13 137.86 93.24 223.96a3130.46 3130.46 0 0 1 108.34 119.39 5494.08 5494.08 0 0 0 41.33 47.55c6.58 7.5 20.19 24.49 27.86 29.34 82.62 52.28 176.82 89.1 270.06 40.05-24.01 60.26-107.72 57.36-158.89 42.61-34.74-10.02-68.86-23.1-101.19-39.36-15.91-8-31.3-18.3-47.12-26.7 40.81 58.35 82 108.52 140.36 151.16 56.43 41.23 127.82 69.36 198.37 71.37 11.02.31 24.45-1.85 35.43-3.64-16.61 26.87-48.39 52.5-79.21 60.89-61.51 16.76-133.96-16.9-186.92-46.34 2.64 4.22 5.68 8.2 8.53 12.26 33.22 47.3 70.41 93.11 118.52 126.04 15.81 10.82 33.13 19.06 50.33 27.53-23.52 12.59-59.83 18.63-86.32 16.44-76.59-6.35-155.19-68.87-203.49-125.53 22.46 76.8 54.27 157.92 116.56 211.15-25.74 2.1-50.82 2.15-76.07-4.14-71.27-17.75-118.63-81.31-154.31-141.25-7.21-12.12-12.72-25.55-19.46-36.58l-.57-.91c-1.59 57.61 6.64 122.54 28.48 176.27 4.43 10.9 9.82 21.7 14.95 32.3-33.75-9.15-58.1-17.15-86.82-38.15-50.68-37.06-81.58-108.09-90.35-169.56-8.19 18.23-24.15 74.44-28.85 93.76-3.67 16.11-7.63 43.84-8.65 60.09-49.51-25.27-73.2-86.38-80.75-138.1-9.49 12.14-19.49 24.22-29.11 36.2-16.05 20-25.17 13.69-37.65-4.76-17.74-26.22-24.48-55.66-26.45-86.83-24.39 28.59-49.79 18.91-69.54-9.08-13.97-19.8-15.11-41.02-14.98-64.53-54.92 32.36-67.61-29.6-63.06-70.6-1.38.63-2.77 1.24-4.16 1.82-18.66 7.83-39.83 7.46-47.35-14.86-7.5-22.27-.86-46.07 8.53-66.67-4.03.34-8.08.6-12.13.78-42.13 1.67-47.38-10.05-27.17-47.38 10.33-19.07 26.18-34.84 41.42-50.03-20 5.64-41.15 7.61-61.75 10-38.19 4.46-65.36-3.12-91.04 32.1-90.5 124.1-173.27 253.57-265.07 376.77-14.55 19.35-47.88 71.76-72.8 33.96-16.92-25.67-8.44-71.2-2.5-98.6-33.15 25.51-71.41 44.26-113 50.92-21.84 3.5-51.32 2-64.5-18.79-7.25-11.42-3.25-24.57-.04-36.43-17.28 1.62-35.93 1.52-50-10.5a40.86 40.86 0 0 1-14.2-28.61c-2.76-39.7 50.52-96.07 76.15-125.01-37.04.52-67.84 3.68-103.82-12.39-27.98-12.49-27.88-34.77-2.55-51.53 10.38-6.86 30.48-13.79 42.6-18.86a4411.19 4411.19 0 0 0 74.87-31.89 13473.31 13473.31 0 0 0 277.8-123.5c20.36-9.37 77.88-35.7 93.3-47.17 6.27-4.66 44.46-73.73 51.57-86.2-34.77 24.02-78.7 40.04-115.9 11.56l12.8-34.79c-28.67 5.02-61.6 7.74-87.15-8.98-18.4-12.04 2.89-34.55 11.63-45.91-31.84 4.65-79.2.62-98.27-29.39 2.99-16.39 4.75-22.6 13.22-36.75-39.73.31-72.45-16.51-93.78-50.24 5.05-13.02 13.99-26.4 21.87-37.87-3.27-.24-6.53-.51-9.79-.81-44.95-4.22-82.08-24.44-110.77-59.03 11.62-14.16 43.9-34.85 59.65-44.54-26.19-5.3-51.8-9.13-76.15-21.15-30.85-15.24-62.39-39.1-80.3-68.93 62.8-1.2 100.46-13.47 158.66-33.65-107.85-22.08-176.97-70.6-204.75-180.7 69.85 38.74 143.68 43.2 221.36 44.27-99.5-57.02-218.76-144.3-203.4-275.23 63.1 68.48 140.42 102.96 224.72 136.52-79.6-77.26-166.9-192.74-108.51-307.05 30.91 77.23 100.5 137.13 162.92 189.08-.6-.89-1.2-1.79-1.79-2.7-6.16-9.49-11.53-21.03-16.35-31.31-21.88-46.71-35.51-102.33-24.15-153.55 9.21-41.54 27.93-64.69 62.96-87.26z"/><path fill="#b5e853" d="M1317.74 692.42c6.92-1 20.32-.43 27.4-.16 37.56 1.44 62.94 14.98 95.11 32.41-18.74 23.4-35.44 43.7-53.55 67.75 8.78 7.37 20.37 14.17 30.06 20.88-46.64 23.87-73.57 28.58-123.24 17.8 9.04 10.75 14.81 15.83 25.92 24.37-28.94-1.82-48.07-7.17-75.73-14.81 20.48 26.59 49.94 43.35 80.87 54.84-8.79 12.43-20.93 24.87-31.49 35.95 12.55 5.15 19.02 6.27 32.59 8.65-16.23 34.37-34.5 62.51-55.32 94.06-76.34 115.74-169.18 186.91-304.94 219.09-17.28 5.29-36.13 6.62-53.3 10.29-16.97 3.62-77.57 2.53-85.02 17.09-10.2 19.92-23.47 47.11-31.22 67.55-33.82 7.1-66.42 21.1-98.44 33.67-8.8-8.59-19.82-21.3-28.73-30.64 13.36-18.97 27.53-44.04 39.46-64.17l60.17-101.05c15.92 14.89 48.71 51.01 63.84 61.4 28.53-2.98 57.09-5.57 85.69-7.76 19.01-17.63 39.57-40.11 58.99-56.48 16.13-1.26 32.27-.27 48.16-2.13 18.12 29.06 59.98 11.07 54.08-19.61a30.64 30.64 0 0 0-13.76-20.02c-17.77-10.94-34.32.48-43.66 16.27-18.1.44-36.6-.09-54.65 1.04-19.9 18.35-39.15 38.25-59.13 56.21-20.39.4-49.62 3.11-69.86 5.48-16.6-19.56-38.51-38.58-56.7-56.95-5.62-5.68-13.96 7.23-16.62 11.89-29.47 51.6-60.67 102.02-91.4 152.86-22.33 36.65-49.28 71.74-69.43 109.67 12.38-6.4 74.17-33.89 79.02-41.32-1.8-6.45-19.35-23.51-24.8-29.25 2.07-3.68 4.34-6.89 6.71-10.37 9.05 12.79 20.9 22.76 30.1 37.1 40.14-18.72 64.27-27.11 107-38.3 6.53-14.86 25.72-59.16 33.64-71.47 16.55-4.73 58.1-7.85 77-9.63a390.94 390.94 0 0 1-19.34 23.99c-14.3-11.17-24.35-4.29-40.1-.12-14 3.71-18.93 26.06-23 38.07-7.71 22.75-5.96 24.21 15 32.67-18.16 3.96-40.18 5.34-57.63 10.67-59.99 18.32-116.96 47.89-171.86 77.67-25.53 13.11-54 29.88-78.6 44.97 11.36-14.3 26.99-38.74 37.1-54.42a3740.8 3740.8 0 0 0 51.64-81.73l132-212.08c24.4-38.78 51.24-82.1 80.04-117.75 15.72-19.47 49.69-48.12 69.46-65.68a5818.98 5818.98 0 0 0 83.1-75.5c19.34-1.03 60.63-8.45 76.4-7.74 5.07.23 59.52 25.06 67.41 28.69 1.65 28.24 4.97 56.86 6.09 85.05-10.02 10.59-19.76 19.51-29.97 30.78-23.88 1.51-47.32-.51-71.39 3.13-15.55 13.73-34.79 33.98-49.7 48.89l-69.14 68.79-26.95.19c.04-4.99-.44-8.63-1-13.53 6.59-.3 26.34-.69 29.88-3.83 18.27-16.18 42.74-42.25 59.43-59.23a2120.15 2120.15 0 0 1 61.51-60.68c18.23 7.8 39.25 8.71 56.68-1.94a53.11 53.11 0 0 0 23.82-32.94c3.74-15.12.77-31.75-7.53-44.88a51.29 51.29 0 0 0-33.46-23.06c-34.23-6.93-59.9 14.8-66.33 47.72-11.62-1.04-39.95.35-52.96.69-7.43 7.05-64.39 68.35-69.38 68.96-3.6-3.08-5.65-4.13-10.64-4.27-27.61-.76-41.81 27.85-22.55 48.19 10.99 11.61 29.6 10.07 40.66-.75 7.78-7.61 3.6-16.85 10.52-24.37 18.74-21.41 41.58-40.54 59.83-62.33 17.19-.97 31.05-.46 48.21.22 4.07 9.56 7.66 13.81 14.36 21.53-16.75 20.15-43.46 44.57-62.27 64.42-10.38 10.95-46.07 48.48-56.78 55.83-9.83-.02-19.6.76-29.4 1.42-5.05-5.49-11.57-8.87-19.1-8.94-39.77-.4-35.61 57.9 1.9 55.95 8.89-.46 15.94-7.43 21.3-13.92 11.23-.42 21.11-.64 32.37-.48 12.23-9.72 27.17-25.81 38.66-36.86 28-26.93 55.21-55.87 83.7-82.19 20.53-1.39 46.57-1.23 67.32-1.26 6.71-3.93 31.22-30.33 39.35-38.24-1.81-31.23-5.22-63.95-7.8-95.26a3685.02 3685.02 0 0 0-70.58-30.7c-10.57-4.46-60.56 3.94-74.23 6.24a1528.74 1528.74 0 0 1 171.33-128.56c47.36-30.93 89.65-58.7 147.8-63.7z"/><path  d="M759.84 1257.71a31.77 31.77 0 1 1 7.85 63.05 31.77 31.77 0 0 1-7.86-63.05z"/><path fill="#b5e853" d="M757.2 1269.17a20.69 20.69 0 1 1 12.57 39.42 20.69 20.69 0 0 1-12.57-39.42z"/><path  d="M760.9 1272.67a16.21 16.21 0 1 1 4.02 32.18 16.21 16.21 0 0 1-4.01-32.18z"/><path fill="#b5e853" d="m761.92 1280.46 3.71 1.99c3.78 5.37 2.78 8.88-1.68 13.17-3.82-2.04-6.06-3.35-6.55-8.07.98-4 1.4-4.13 4.52-7.09z"/><path  d="M1360.54 727.18c17.93-1.55 21.69 6.06 37.17 12.7 1.23.53 9.55 1.36 11.4 1.55-2.24.73-14.1 2.16-14.42 2.98-7.18 18.66-7.62 33.76-35.8 26.96-13.53-6.69-15.11-12.25-16.85-26.3-11.15 3.17-16.64 4.68-28.22 6.49 6.65-4.73 39.6-21.9 46.72-24.38z"/><path fill="#b5e853" d="M1366.23 738.63a9.51 9.51 0 1 1 7.54 17.48 9.51 9.51 0 0 1-7.54-17.48zM125.21 380.5c3.58 1.94 10.8 8.01 14.2 10.81 36.56 30.45 78.2 51.89 120.9 72.19 37.67 17.9 76.5 28.25 115.28 42.23 17.88 6.44 41.6 18.93 59.43 27.05 33.1 15 66.43 29.46 100 43.36 21.97 8.97 43.96 17.27 66.64 24.3 19.6 6.07 33.92 22.8 50.38 35.1-16.9-6.55-33.74-11.7-51.88-12.88-35.37.66-15.48 29.03-3.22 44.28-56.88-13.13-115.54-22.94-172.7-34.9-21.98-4.6-49-9.7-70.07-16.93-6.66-2.29-24.58-13.35-31.7-17.3-20.86-11.55-40.4-24-60.27-37.16-56.28-37.27-108.41-85.3-130.47-151-2.83-8.43-4.81-20.15-6.52-29.16zM118.42 601.55c67.17 26.33 143.75 28.81 215.07 28 24.83-.27 39.46 3.1 63.74 7.94l76.47 15.48 80.05 15.66c15.19 2.9 36.6 6.47 50.9 10.75 7.89 2.36 27.26 15.23 36.57 20.3-11.02-.72-31.72.3-42.11 3.77-14.77 9.68-7.7 19.78-.37 32.33l-161.35 1.67c-26.38.48-68.66 2.56-93.84.7-32.34-2.37-78.96-14.84-109.06-26.64-57.33-22.5-91.6-53.47-116.07-109.96zM224.47 212.68c4.85 4.15 20.43 30.78 27.22 38.98a754.43 754.43 0 0 0 100.43 99.37 504.96 504.96 0 0 0 51.63 36.75c9.93 6.14 23.14 12.47 32.24 19.19 34.13 25.74 67.93 52 102.3 77.43 25.23 18.66 51.23 30.47 77.75 46.09 4.66 2.74 22.74 23.33 29.51 29.23-17.15-6.87-31.52-13.06-50.06-10.02-16.49 11.03-.7 29.78 7.71 40.87-59.15-20.47-115.75-44.53-172.2-71.51-13.3-7.87-45.32-18.5-55.9-28.47-68.81-64.98-174.71-174-150.63-277.91zM1488.37 1432.64c7.19 6.28 21.44 78.26 24.79 92.74l38.4 161.33c21.14 85.3 42.92 162.72 100.22 231.75-20.98-1.94-37.13-7.14-56.37-15.51a154.19 154.19 0 0 1-35.83-22.79c-42.29-35.7-77.78-94.05-101.19-143.82-10.2-19.52-13.66-28.59-13.36-50.72.96-70.7-3.74-140.67-9.88-211.03 9.35 13.68 25.56 26.5 41.78 11.31 11.21-10.5 11.68-38.27 11.44-53.26zM1419.79 1450.76c18.82 20.63 9.43 260.81 9.09 301.26-.37 24.5.36 48.99 2.18 73.42 3.21 40.28 9.28 68.38 23.93 105.96-26.58-10.63-39.38-20.14-60.25-39.8a185 185 0 0 1-10.89-12.02c-40.12-47.58-61.1-128.95-55.43-190.49 1.63-17.67 9.74-43.84 13.04-62.47 7.92-44.68 19.38-97.53 23.13-142.25 8.38 8.8 19.06 15.26 31.06 8.67 14.54-8 19.58-27.47 24.14-42.28zM577.13 745.5c41.34-.8 30.56 6.33 64.66 19.68-18.97 5.73-51.3 7.7-41.09 34.46 2.02 5.29 4.65 9.6 7.14 14.63-13.85 1.17-28.47 3.75-42.35 5.5-54.94 6.95-110.5 12.52-165.25 20.63-15.12 2.23-30.2 4.73-45.24 7.49-40.44 7.5-54.59 8.75-96.36-1.7-34.22-8.67-60.7-22.78-85.92-47.68 60.27-9.03 110.31-26.96 167.3-46.87 10.06-3.51 59.95-2.54 74.45-2.88 54.21-1.4 108.43-2.5 162.66-3.27z"/><path fill="#b5e853" d="M1507.9 1454.79c4.81 4.27 5.65 7.7 12.86 12.52 13.54 9.07 22.24 9.71 37.41 7.23a299.41 299.41 0 0 0 16.11 27.09c68.79 101.97 111.39 221.82 209.54 301.49 13.07 10.61 26.13 19.4 39.92 28.55-48.42 4.07-84.86-4.75-129.91-32.14-42.22-25.66-95.89-75.29-124.5-116.45-4.97-7.16-16.43-53.92-19.21-64.17a6335.05 6335.05 0 0 1-42.22-164.12zM611.58 823.4c.82-.2 2.82-.12 3.77-.12 15.78 9.96 28.65 13.41 46.35 17.53-21.2 9.82-45.9 14.1-30.03 43.88-34.38 9.92-68.75 22.07-103.5 30.87-56.67 14.34-113.73 28.34-170.67 41.31-8.48 1.93-30.01-2.55-39.03-4.3-24.8-6.81-43.81-17.28-61.33-36.13 18.87-13.82 53.18-37.97 74.62-47.37 12.59-5.52 56.14-12.37 71.79-15.07a6301.89 6301.89 0 0 1 208.03-30.6zM1349.39 1453.69c1.33 2.08 6.55 16.76 6.31 18.61-11.66 84.27-28.25 173.25-53.42 254.53-15.79 50.95-32.98 92.1-42.26 145.84-12.28-15.12-17.09-19.99-27.3-37.2-26.83-49.71-25.61-114.22-4.12-165.45 7.55-19.99 20.04-39.51 26.62-59.75 15.63-48.11 30.77-99.42 38.25-149.49 20.91 34.75 40.17 24.11 55.92-7.09zM561.97 1407.17l.48 1.33c-15.6 23.12-35.47 47.69-51.84 70.95a1393.07 1393.07 0 0 1-62.62 81.8c-3.4 4.14-18.07 15.98-22.88 19.99l-40.54 33.8c-22.2 18.53-44.69 38.98-67.57 56.34-16.33 12.38-62.1 27.35-82.03 18.3-6.05-5.71-7.52-12.19-4.94-20.28 10.55-32.11 37.13-68.69 63.05-90.42 80.6-67.59 179.66-117.42 268.89-171.81zM1237.35 1428.88c11.55 23.9 27.02 36.98 49.35 14.97-8.34 50.26-22.52 101.1-38.64 149.3-13.38 40.02-39.54 73.82-46.02 116.62-.81 5.41-4.06 21.6-6.81 25.95-9.58 15.13-22 29.66-33.19 43.78-4.84 6.28-8.81 11.38-14.13 17.22-19.37-19.33-26.92-49.41-28.97-75.84-5.05-65.12 35.99-107.75 64.2-160.78 20.47-38.47 43.4-88.65 54.21-131.22zM642.38 1475.78l1.26.41c-.7 4.27-15.13 21.15-18.54 25.3a2256 2256 0 0 1-132.55 145.72c-36.54 37.18-75.31 82.17-125.2 101.18-19 7.24-49.5 15.69-69.82 10.73-6.13-5.54-6.92-12.28-4.4-20.06 11.56-35.68 43.47-56.28 71.64-77.25a1234.59 1234.59 0 0 0 40.61-32c19.94-16.38 41.48-38.62 61.45-53.24 9.16-6.71 34.15-19.72 44.99-26.4 42.67-26.33 87.05-49.57 130.56-74.39zM637.3 892.96c3.58-.09 14.17 8.83 20.92 11 13.78 4.42 23.94 5.14 38.15 6.22-11.1 7.19-23.63 14.9-31.4 25.77-.14 1.19-.76 6.7-1.37 7.04-46.75 26.6-96.18 50.26-145.1 72.78-35.34 16.25-69.04 29.77-108.5 29.22-23.35-2.92-44.66-13.76-58.9-32.81 5.18-9.32 29.61-43.52 37.76-46.07 81.63-25.6 168.14-42.62 248.44-73.15zM1176.72 1402.89c3.68 4.76 3.01 17.07 12 24.83 16.8 14.5 32.34-2.05 44.24-15.18-18.37 57.97-38.12 103.84-70.21 156.19-10.24 16.7-23.82 33.9-33.02 50.54-14.18 25.67-23.87 50.91-38.85 76.78-6.54 10.21-15.09 22.11-28.45 14.02-20.7-12.53-30.06-40.39-28.31-63.54 4.02-53.09 50.29-88.16 78.19-129.61 24.89-36.84 48.68-72.32 64.41-114.03zM666.53 953.77c1.54-.1 12.36 8.97 17.67 11.46 16.42 7.7 41.99 5.16 59.38 3.68-9.29 7-20.13 16.98-29.4 23.07-60.05 39.53-137.05 104.92-207.95 118.87-30.18 4.52-50.03 1.24-76.75-13.67 5.6-12.91 23.99-36.21 35.96-44.43 8.7-5 19.09-8.07 28.25-12.06 59.05-25.78 116.06-56.54 172.84-86.92z"/><path fill="#b5e853" d="M1123.17 1366.51c13.16 35.37 28.44 29.08 52.02 8.4-9.79 47.48-48.8 102.08-78.26 140.56-11.62 15.19-27.04 31.04-39.22 46.32-13.01 16.31-25.12 36.29-39 51.36-15.8 15.76-35.57 30.58-44.92-.52-17.02-56.62 23.55-84.04 54.59-119.64 29.91-34.32 75.93-86.56 94.79-126.48zM385.78 120.77c2.06 3.05 2.04 21.4 2.37 26.48 1.47 22.62 5 44.93 10.46 66.9a375.23 375.23 0 0 0 56.84 126.58c40.26 57.48 95.33 117.42 167.47 130.18 3.8 4.04 6.69 8.31 9.93 12.8-18.43-6-50.2-15.74-35.04 18.52 1.92 3.41 5.19 7.54 7.58 10.77-42.96-20.74-78.64-49.44-116.55-78.23-14.75-12.73-36.1-25.2-49.87-38.55-60.28-58.47-117.82-204.95-53.2-275.45zM1549.65 1417.69c4.65 3.53 35.17 51.94 42.46 61.44 81.34 106.04 182.85 186.28 320.85 197.15-5.51 4.2-10.61 7.33-16.48 11-71.07 38.93-160.57-17.18-223.42-49.85-25.9-36.22-47.89-78.94-72.35-116.18-23.14-35.25-38.16-63.23-51.06-103.56zM709.88 1445.11c-.6 3.39-12.57 18.8-15.65 23.08a3434.34 3434.34 0 0 0-30.92 44.23c-49.47 71.57-96.5 143.1-147.86 213.49a1426.04 1426.04 0 0 1-36.89 48.9c-5.07 6.44-14.72 21.05-22.52 22.84-3.6-.54-4.19-1.48-6.9-3.88-9.35-22.05-6.83-43.41 1.7-65.27 11.82-30.25 41.4-56.11 63.56-79.47a3774.54 3774.54 0 0 0 90.26-96.83c18.4-20.87 36.3-42.16 53.7-63.86 24.08-29.84 15.1-27.31 51.52-43.23zM597.94 1351.17l.48 1.11c-5.91 7.41-11.63 18.58-19.75 23.57-48.35 29.67-98 57.43-146.4 86.98-25.9 15.84-51.59 32-77.09 48.46-16.6 10.88-32.78 22.19-49.85 32.16-24.3 14.2-72.27 13.86-98.08 5.93-16.88-10.1-2.93-21.58 8.88-27.05 15.16-7.03 30.86-13.01 46.31-19.39a4096.4 4096.4 0 0 0 80.95-34.62c58.14-25.79 116-52.17 173.6-79.15 27.06-12.54 53.74-25.85 80.95-38z"/><path fill="#b5e853" d="M1070.67 1339.55c3.64 2.78 3.81 7.68 6.36 10.91 13.72 17.41 37.55-3.17 49.42-11.55-16.51 57.76-116.15 151.89-159.75 195.14-9.1 9.19-44.8 42.91-48.37 10.4-5.44-49.73 29.99-75.65 63.49-104.24a479.51 479.51 0 0 0 35.59-33.66c24.23-25.25 32.83-41.49 53.26-67zM709.58 1007.97c8.13 27.69 26 27.59 50.27 30.19l-6.73 3.01c-12.75 5.68-26.76 19.65-37.75 28.75-29.59 24.48-58.09 50.52-89.34 72.92-22.2 15.9-42.84 25.56-70.4 26.26-18.79.31-29.08-.35-46.06-8.48 9.08-13.06 29.2-35.8 41.25-46.92 2.75-2.54 19.32-11.91 23.32-14.25a892.08 892.08 0 0 0 31.41-19.25c31.56-20.23 73.84-49.92 104.03-72.23zM748.7 1052.9c1.21 1.4 4.06 12.69 6.91 16 4.2 4.86 13.46 6.7 19.41 7.72-16.01 24.39-27.4 47.9-48.53 68.55-29.9 29.21-60.97 63.16-104.17 69.74-11.94.36-15.88.55-27.15-3.02 15.46-50.23 20.26-42.4 57.18-74.3 31.35-27.09 66.92-55.84 96.36-84.69zM1313.72 1343.76c4.65 4.69-13.58 97.52 7.57 106.23 17.92-.12 38.07-75.58 42.12-92.27 2.58 22.32 2.3 93.68 20.16 105.65 17.72 1.85 30.36-87.79 35.32-103.53 5.14 17.46 22.39 100.19 39.65 101.72 21.03-9.63-1.38-98.49-6.13-117.88 25.78 23.21 45.55 160.84-3.34 131.88-20.94-20.14-25.61-51.93-31.45-79.68-2.32 20.34-6.18 81.04-30.07 86.54-4.38.97-8.97.02-12.61-2.61-17.39-12.31-17.72-53.91-20.61-73.78-2.99 12.9-19.57 84.19-45.07 57.67-19.5-20.29-8.17-53.18-6.13-77.94l.11-1.45c-8.09 17.03-15.15 47.22-32.01 57.55-7.34 4.49-19.23-5.02-21.76-12.98-7.82-24.63 5.48-61.89 15.51-84.11-1.35 14.75-12.03 77.35 5.25 81.26 20.95-5.29 32.21-65.85 43.49-82.27zM1055.86 1342.97l.71.6c-.86 5.04-38.73 48.79-46.25 55.8-23.73 22.11-51.56 50.77-80.1 66.27-10.69 5.8-36.91 7.49-49.16 7.55l-.83-.86c-.28-1.61-.15-3 .56-4.66 15.59-36.45 50.3-67.45 83.58-88.06 3.7-2.29 26.77-9.77 31.6-11.69 20.04-7.96 40.64-15.56 59.89-24.95zM842.1 704.3c1.37.28 1.85.34 3.04.7 68 19.71 138.51 30.65 195.86 75.32 7.48 5.83 20.43 15.3 25.22 23.47-5.6-1.07-29.67-9.86-37.06-12.21a713.36 713.36 0 0 0-60.11-15.96c-19.87-4.54-78.27-14.68-92.72-22.09-18.86-9.66-28.44-30-34.24-49.23zM1063.26 922.62a44.98 44.98 0 1 1 15.32 88.65 44.98 44.98 0 0 1-15.32-88.65z"/><path  d="M1064.43 941.31a25.97 25.97 0 1 1 13.63 50.11 25.97 25.97 0 0 1-13.63-50.1z"/><path fill="#b5e853" d="M1069.19 952.45a14.27 14.27 0 1 1 4.4 28.2 14.27 14.27 0 0 1-4.4-28.2z"/><path  d="M1068.82 956.03c16.47.25 15.85 12.9 4.66 20.83-13.67 0-15.07-12.48-4.66-20.83z"/><path fill="#b5e853" d="M649.53 468.49c8.9 3.63 143.62 143.88 159.5 160.84l-1.48 11.9c-2.16.93-5.84-.39-8-1.48-13.56-8.67-52.28-19.64-62.7-29.7-35.16-33.96-68.84-99.31-87.32-141.56zM1339.34 1045.71c2.26 2.2 3.75 6.96 5.34 9.75 9.34 16.58 10.56 34.99 12.47 53.52 3.22 31.18 4.93 62.65 6.89 93.94 1.07 17.14.69 32.26 3.96 49.3-3.1-1.63-6.19-3.48-9.23-5.24-9.77-6.8-29.72-26.3-30.16-38.78-1.4-39.9-5.25-81.55-2.78-121.29.27-4.4 11.46-34.76 13.51-41.2zM879.3 768.59c14.27 1.94 29.62 6.89 44.02 9.53 45.91 8.43 89.02 20.62 133.62 34.18l-12.23 9.9-12.69 11.07c-12.38-.24-29.32-2.53-41.72-4.45-42.81-6.62-102.47-4.74-111-60.23zM1478.35 736.84c40.14 2.81 90.75 11.22 120.12 40.05-49.86-13.29-134.68-13.25-180.46 10.47 12.4-.61 39.69-6.25 54.22-7.97 23.34-4.03 78.67-2.9 102.38-.56-44.81 5.98-81.56 15.25-124.8 26.38-12.75-3.79-23.97-11.01-34.96-18.28 18.12-19.7 41.7-34.11 63.5-50.1zM1424.7 1243.37c7.21 4.22 50.85 50.93 59.25 59.67a9666.37 9666.37 0 0 0 107.81 110.3c-4.78-.7-16.33-7.48-21.39-10.15-48.98-25.81-99.24-56.21-134.04-100.11-5.16-6.5-10.75-50.09-11.63-59.71zM877.22 804.36c.4-.08 2.34.09 2.36.1 7.66 7.96 11.75 12.8 21.43 18.2l5.07 11.83c-23.68 7.2-94.52 24.76-118.43 22.82a64.07 64.07 0 0 1-6.09-2.13c-10.85-4.32-19.27-14.47-23.61-25.1-1.72-4.2-3.08-10.8-.45-14.97.04-.06 2.15-2.58 2.5-2.58 18.5-.29 43.42-.94 61.2-1.98 18.78-1 37.48-3.06 56.02-6.19zM741.6 750.57c40.26 4.02 73.37 7.04 113.61 6.52l10.86 8.25c1.34 10.26 2.88 17.45 6.12 27.23l-.67 1.2-6.34.94c-19.14 2.17-94.25 10.62-109.07 1.57-8.24-5.03-17.2-19.43-19.02-29.03-1.29-6.87.77-11.09 4.5-16.68zM908.3 846.14c1.8.61 18.22 22.55 20.62 25.5-25.4 13.24-76.59 33.87-105.51 38.9-2.4.43-8.84-1.53-11.53-2.33-8.06-3.42-32.27-23-22.51-34.67 1.8-2.16 20.61-5.31 24.76-5.95 31.94-4.95 63.01-12.9 94.17-21.45zM668.34 840.9c7.07-.05 24.63 2.05 32.54 2.63-8.67 1.77-45.39 9.95-47.16 22.03-1.92 13.1 24.72 18.93 35.03 20 18.37 1.92 39.28 2.51 57.96.54 5.83-.44 20.44-3.28 24.6-2.49l1.52 2.75c-.1 2.39.22 3.65-2.9 4.48-14.96 3.97-78.56 30.34-78.09 47.92 6.57 14.32 66.4 6.71 81.65 4.9 12.83-1.47 23.5-4.14 35.83-7.52 1.35 3.36 2.5 4.92 4.44 7.91-49.56 26.81-213.54 27.03-94.92-42.3-10.97.37-21.94-.25-32.8-1.84-14.66-2.2-35.98-8.13-44.84-20.9-12.7-18.3 15.58-30.44 27.14-38.12zM729.59 687.91c31.95 8.56 67.24 14.17 99.93 18.45 5.6 13.38 6.86 22.35 15.06 36.33l.84 1.42-.35 1.17-2.82.37c-17.67.1-85.53-.72-101.57-12-9.46-6.64-23.2-32.65-11.1-45.74zM937.38 880.78c3.95-.45 17.36 4.68 22.06 6.22-20.15 19.67-53.46 47.55-76.7 63.3-11.94 8.1-19.26 8.38-32.65 5.13-14.44-5.28-20.48-14.45-25.49-28.27 10.93-6.13 35-13.66 47.65-18.59 22.21-8.64 43.66-17.19 65.13-27.79zM724.17 618.61c5.5 1.55 23.25 10.15 29.29 13 17.95 8.46 33.99 15.67 52.6 22.57 3.37 17.59 8.24 26.2 18.9 39.95l-.53.56-5.66-.64a618.7 618.7 0 0 1-84.13-18.57c-14.52-15.77-30.48-38.2-10.47-56.87zM1365.84 1097.7c3.53 4.79 10.25 23.11 12.64 29.58 19.54 52.96 32.22 98.45 37.77 154.31-7.16-3.77-35.73-25.45-36.78-33.19-3.47-25.55-3.82-52.39-5.91-78.31-1.95-23.98-6.29-48.62-7.72-72.39zM1266.65 1201.44c9.71 7.11 14.81 11.43 25.41 17.62-7.09 18.11-13.48 34.47-19.67 52.98-3.65 10.93-10.26 34.96-15.31 44.2-18.5 7.54-26.63-29.92-23.14-41.51 7.25-24.07 20.21-51.39 32.71-73.29zM1298.66 1223.64c9.34 5.66 19.74 12.77 29 18.8-1.94 10.34-5.38 23.9-7.73 34.47-4.01 17.95-6.98 43.06-14.06 59.4-8.64 6.03-15.63-3.33-19.71-10.27-13.24-22.52-4.45-43.23 2.29-66.03 3.48-12.1 6.88-24.23 10.21-36.37zM1335.48 1248.34c12.48 6.79 20.04 12.95 35.15 20.42-2.9 21.83-6.75 66.68-11.43 84.63l-1.44 2.44-1.74.17c-42.52-19.64-25.89-73.19-20.54-107.66zM1378.37 1272.51c14.52 11.6 20.91 16.81 38.31 22.42-.82 17.99-2.05 56.22-6.25 72.41-.85 1.39-1.63 2.04-2.76 3.25l-2.59.06c-36.05-18.85-27.79-64.05-26.71-98.14zM819.93 639.62c9 4.38 23 16.89 32.75 22.58 24.33 14.2 48.81 28.4 73 42.83 8.96 5.35 24.02 13.52 31.63 19.33l-69.56-20.09c-16.99-4.9-46.7-10.78-57.82-25.12-8.86-11.42-12.11-25.21-10-39.53zM1314.53 1105.74c.63 7.59.13 21.07.21 29.43.33 30.3-.87 57.81 2.99 88.02-6.15-6.49-14.07-13.04-20.9-18.98-14.58-13.69-18.05-18.79-25.61-37.02 16.99-20.52 28.89-38.97 43.31-61.45zM972.13 1166.5c9.57-.21 42.92-1.86 49.79.95.78 2.9.72 1.45-.03 4.52-8.58 2.99-36.28 2.96-47.03 3.26-13.53 9.24-44.66 43.12-59.83 56.18-27.48 2.72-54 3.49-82.38 6.82-7.45-9.11-24.97-25.32-34.01-34.16-3.63-3.63-25.99-24.67-26.4-27.16 2.58-3.51.98-2.32 4.76-3.95 6.36.86 10.17 7.1 14.56 11.34 14.85 14.34 28.54 30.42 44.13 43.92 25.52-1.19 50.2-4.74 76.9-5.34 7.7-8.97 19.73-19.34 28.25-28.03 5.7-5.83 25.52-26.88 31.29-28.35zM779.92 962.32l1.5.23c-7.1 10.67-48.04 29.72-45.06 44.74 14.6 21.41 104.2-19.2 123.62-29.58l-14.06 14c-18.5 20.56-63.28 34.61-90.82 35.6-15 1.54-34.24-7.68-33.44-24.83.43-9.22 30.41-31.36 37.8-37.07 6.74-.43 13.77-1.9 20.46-3.09zM655.18 772.41c6.48-.74 20.4 3.94 26.78 5.9-104.1 4.7-38.04 42.49 18.68 46.14 6.68.43 37.1 1.57 40.29 3.95.16 2.19.06 2.8-.18 4.99-2.18 2.16-3.97 2.93-7.07 3.48-30 5.07-77.86-.05-103.3-18.2-44.52-31.74-6.3-42.58 24.8-46.26zM917.45 829.78c11 1.3 27.17 4.84 38.58 6.7 20.49 3.14 41.1 5.4 61.77 6.8-5.55 4.46-13.3 9.73-19.2 13.99l-23.33 18.15c-28.7-2.1-51.05-16.9-57.82-45.64zM1252.24 1187.71c3 1.48 6.55 5.7 9 8.25-19.25 23.71-30.12 60.64-48.96 84.12-2.2 2.74-9.09 2.08-12.84 1.95-6.44-8.39-8.39-17.78-10.58-27.84 10.39-12.39 22.62-23.04 33.94-34.62 10.12-10.36 19.71-21.13 29.44-31.86z"/><path fill="#b5e853" d="M1211.65 1310.77c.44 14.16-24.59 87.4-4.98 91.76 15.38-4.13 39.94-53.13 49.27-67.26 4.34-6.57 8.9-12.98 13.68-19.46-3.14 8.79-6.21 17.6-9.2 26.44a425.65 425.65 0 0 1-8.18 19.34c-6.67 14.5-46.88 92.45-65.17 41.71-9.29-25.77 11.68-69.57 24.58-92.53zM629.85 707.36c14.04-1.46 18.31-1.29 31.23 3.9-9.69 1.04-36.26.97-41.2 8.84 3.6 19.34 79.6 41.28 99.7 46.52.99 3 2.49 6.4 1.52 8.87-37.47-2.67-100.56-17.04-119-55.4-4.65-9.67 21.3-11.68 27.75-12.74zM1164.14 1275.99c1.26 11.18-31.71 76.74-10.89 83.59 19.94-2.99 46.35-52.68 60.74-66.94a403.59 403.59 0 0 1-10.73 23.79 270.97 270.97 0 0 1-9.42 16.8c-8.76 14.56-24.68 38.95-42.25 44.14-10.02 2.96-17.57-7.41-18.57-16.62-3.3-30.54 13.51-61.14 31.12-84.76zM707.76 713.95c-34.12-7.5-77.92-27.19-102.13-53.22-5.6-6.02-13.78-15.23-13.52-23.7 4.88-8.57 20.91-2.36 28.64-.32l.19 1.5c-3.85-.33-7.12-.86-10.26 1.32-5.3 16.15 80.13 59.05 95.84 64.63l1.24 9.79zM701.48 652.7l-1.57-.78c-34.84-17.5-82.1-50.64-99.96-88-.88-1.84-.09-2.67.75-4.16 3.65-1.32 7.06-.35 10.95.25l2.48 3.14c15.9 29.42 57.8 56.67 85.56 75.03.2 4.8 1.08 9.75 1.78 14.53zM1469.11 1361.67c14.61 9.22 45.45 90.95 66.27 75.91 5.65-10.29-1.71-20.19-2.28-29.23l1.46-.07c4.37 3.77 7.32 15.9 8.84 21.73l8.16 30.39c-8.18.39-14.6.79-22.24-3.07-30.31-15.32-48.84-65.73-60.21-95.66zM605.5 485.59l4.42.71c6.53 4.93 24.3 28.35 31.1 36.07 12.74 14.47 35 33.25 41.39 50.42-22.7-13.66-42.74-29.97-59.08-50.95-6.98-8.95-19.19-24.48-17.83-36.25zM970.34 969.47c6.11-.07 41.81-1.25 44.98.63.29 2.86.69 3.8-.4 6.41-11.79 3.35-33.07.6-46.8 2.63-9.98 12.43-29.94 31.79-41.63 43.74-5.74 5.75-12 13.91-18.88 17.53-3.92.13-2.22.7-5.25-1.8l.23-1.85c14.66-17.65 48.28-47.54 64.64-66.37l3.11-.92zM872.6 1303.33a17.74 17.74 0 1 1 9.2 34.27 17.74 17.74 0 0 1-9.2-34.27z"/><path  d="M873.22 1313.38a8.75 8.75 0 0 1 12.68 8.67 8.74 8.74 0 1 1-12.68-8.67z"/><path fill="#b5e853" d="M1046.08 1149.82a17.73 17.73 0 1 1 10.13 33.98 17.73 17.73 0 0 1-10.13-33.98z"/><path  d="M1048.27 1155.62a11.13 11.13 0 1 1 5.59 21.55 11.13 11.13 0 0 1-5.59-21.55z"/><path fill="#b5e853" d="M1150.89 1285c-2.62 15.19-45.15 69.14-64.83 58.2-1.68-3.85-3.32-8.15-4.91-12.07 14.91-9.18 15.02-3.39 25.37-7.68 12.67-5.25 33.77-28.02 44.37-38.45zM653.18 1374.77c6.19 6.54 11.97 13.58 17.78 20.47-10.3 4.27-21.06 10.29-31.67 14.97-3.94 1.45-9.02 4.15-12.9 6.04 9.25-13.85 16.96-27.68 26.79-41.48zM804.3 1024.04l.93.32c-1.32 2.67-27.87 22.87-32.98 27.81 2.55 3.61 9.66 9.44 9.15 13.07-3.1 1.23-5.9.24-9.32-.38-15.67-4.37-17.3-20.6-2.17-27.65 11.16-5.2 22.82-8.96 34.4-13.17zM875.22 1038.16c8.7-.71 24.2 3.69 21.24 14.85l-2.06-1.06c-8.94-7.04-13.35-7.33-24.04-9.89l.14-1.29 4.72-2.61zM864.7 1132.24c7.1 1.37 10.32 1.59 10.74 9.44-4.1-2.23-10.1-4.56-10.74-9.44z"/><path fill="#5A5A5B" d="M611.65 560c6.68.56 14.82 1.4 21.23 3.3-6.29.77-15.67-1.08-18.75-.15l-2.48-3.14zM620.75 636.7c5.03.3 7.48.21 12.36 1.7l.58.98c-3.43.8-9.41-.06-12.75-1.17l-.2-1.5z"/></svg>